<svg width="40" height="40" viewBox="0 0 40 40" fill="none" xmlns="http://www.w3.org/2000/svg">
<path d="M17.333 20C18.317 20 18.8099 21.1899 18.1143 21.8857L10.3232 29.6768C10.1161 29.8839 10 30.1651 10 30.458L9.99902 38.8955C9.999 39.5055 9.50453 40 8.89453 40H1.10449C0.494538 39.9999 0 39.5055 0 38.8955V21.1045C3.46525e-05 20.4945 0.494561 20.0001 1.10449 20H17.333ZM30 22.667C30 21.683 31.1899 21.1902 31.8857 21.8857L39.6768 29.6768C39.8837 29.8839 40 30.1652 40 30.458V38.8955C40 39.5055 39.5055 40 38.8955 40H12.667C11.6831 39.9999 11.19 38.8101 11.8857 38.1143L19.6768 30.3232C19.8582 30.1418 20.0589 29.9744 20.3496 30.0059C22.6158 30.2518 23.8829 31.589 24.2246 33.8984C24.4979 31.6614 25.6713 30.2606 28.0898 30.0156C28.0429 30.0112 28.156 30.0211 28.1104 30.0156L28.8955 30C29.5055 30 29.9999 29.5055 30 28.8955V22.667ZM38.8945 0C39.5045 0 39.999 0.494491 39.999 1.10449V18.8955C39.999 19.5055 39.5046 20 38.8945 20H22.667C21.683 20 21.1899 18.8101 21.8857 18.1143L29.6768 10.3232C29.8837 10.1161 30 9.83477 30 9.54199V1.10449C30 0.494542 30.4946 8.4723e-05 31.1045 0H38.8945ZM27.333 0C28.317 0 28.81 1.1899 28.1143 1.88574L20.3232 9.67676C20.1161 9.88377 19.8348 10 19.542 10H11.1045C10.4945 10 10.0001 10.4945 10 11.1045V17.334C9.99961 18.3177 8.80995 18.81 8.11426 18.1143L0.324219 10.3232C0.117199 10.1162 0.000119619 9.83574 0 9.54297V1.10449C0.000100307 0.494564 0.494553 2.15474e-05 1.10449 0H27.333Z" fill="url(#paint0_linear_1718_157831)"/>
<path d="M24.1834 28.8599C24.2862 29.165 24.4377 29.4274 24.6434 29.6387C24.8432 29.8439 25.0903 29.9968 25.3849 30.0945C25.0736 30.1919 24.8177 30.3439 24.6154 30.5484C24.4126 30.7535 24.2684 31.0062 24.1744 31.2984C24.0693 30.9947 23.9134 30.7373 23.7028 30.5313C23.4977 30.3308 23.2449 30.1833 22.9463 30.0885C23.2503 29.9906 23.5093 29.8405 23.7178 29.6359C23.9296 29.428 24.0847 29.1683 24.1834 28.8599Z" fill="url(#paint1_linear_1718_157831)"/>
<defs>
<linearGradient id="paint0_linear_1718_157831" x1="20" y1="-7.30769" x2="20" y2="44.2308" gradientUnits="userSpaceOnUse">
<stop stop-color="#00C2FF"/>
<stop offset="1" stop-color="#9B51E0"/>
</linearGradient>
<linearGradient id="paint1_linear_1718_157831" x1="24.834" y1="29.5828" x2="23.0366" y2="31.1498" gradientUnits="userSpaceOnUse">
<stop stop-color="#8E8AEF"/>
<stop offset="0.2425" stop-color="#7B89F0"/>
<stop offset="0.7299" stop-color="#4B85F2"/>
<stop offset="1" stop-color="#2E83F4"/>
</linearGradient>
</defs>
</svg>
