<svg width="303" height="276" viewBox="0 0 303 276" fill="none" xmlns="http://www.w3.org/2000/svg">
<g clip-path="url(#clip0_1168_13851)">
<rect width="302.667" height="276" rx="16" fill="#0F0F0F"/>
<rect width="312" height="71" transform="translate(-5 -4)" fill="url(#paint0_linear_1168_13851)"/>
<rect width="312" height="71" transform="translate(-5 67)" fill="url(#paint1_linear_1168_13851)"/>
<g clip-path="url(#clip1_1168_13851)">
<rect width="312" height="71" transform="translate(-5 138)" fill="#0F0F0F"/>
<g filter="url(#filter0_f_1168_13851)">
<circle cx="151" cy="174" r="26" fill="#666666"/>
</g>
</g>
<rect width="312" height="71" transform="translate(-5 209)" fill="url(#paint2_linear_1168_13851)"/>
<rect x="129.167" y="81" width="45" height="32" rx="16" fill="white" fill-opacity="0.2"/>
<path d="M141.283 102.168C139.505 102.168 138.119 101.048 138.007 99.452H139.631C139.687 100.292 140.429 100.74 141.311 100.74C142.487 100.74 143.173 99.956 143.173 98.78C143.173 97.604 142.529 96.834 141.493 96.834C140.583 96.834 139.995 97.142 139.645 97.94H138.175V92.48H144.153V93.908H139.631V96.372C140.163 95.756 140.933 95.532 141.717 95.532C143.551 95.532 144.713 96.82 144.713 98.724C144.713 100.628 143.397 102.168 141.283 102.168ZM149.487 102.168C147.093 102.168 145.833 100.46 145.833 97.24C145.833 94.02 147.093 92.312 149.487 92.312C151.881 92.312 153.141 94.02 153.141 97.24C153.141 100.46 151.881 102.168 149.487 102.168ZM149.487 100.768C150.915 100.768 151.615 99.606 151.615 97.24C151.615 94.874 150.915 93.712 149.487 93.712C148.059 93.712 147.359 94.874 147.359 97.24C147.359 99.606 148.059 100.768 149.487 100.768ZM156.379 91.864C157.097 91.864 157.639 92.1393 158.003 92.69C158.376 93.2313 158.563 93.9967 158.563 94.986C158.563 95.9753 158.385 96.75 158.031 97.31C157.685 97.8607 157.135 98.136 156.379 98.136C155.921 98.136 155.529 98.01 155.203 97.758C154.885 97.506 154.647 97.1467 154.489 96.68C154.33 96.204 154.251 95.6393 154.251 94.986C154.251 93.9967 154.419 93.2313 154.755 92.69C155.1 92.1393 155.641 91.864 156.379 91.864ZM156.379 92.9C156.071 92.9 155.842 93.0773 155.693 93.432C155.543 93.7773 155.469 94.2953 155.469 94.986C155.469 95.686 155.543 96.2133 155.693 96.568C155.842 96.9227 156.071 97.1 156.379 97.1C156.705 97.1 156.948 96.9273 157.107 96.582C157.265 96.2273 157.345 95.6953 157.345 94.986C157.345 94.2953 157.265 93.7773 157.107 93.432C156.948 93.0773 156.705 92.9 156.379 92.9ZM162.987 92.004L157.443 102H156.197L161.741 92.004H162.987ZM162.763 95.868C163.239 95.868 163.635 95.994 163.953 96.246C164.279 96.4887 164.527 96.8433 164.695 97.31C164.863 97.7673 164.947 98.3273 164.947 98.99C164.947 99.9793 164.769 100.754 164.415 101.314C164.06 101.865 163.509 102.14 162.763 102.14C162.296 102.14 161.904 102.014 161.587 101.762C161.269 101.51 161.027 101.151 160.859 100.684C160.7 100.208 160.621 99.6433 160.621 98.99C160.621 98.0007 160.789 97.2353 161.125 96.694C161.47 96.1433 162.016 95.868 162.763 95.868ZM162.763 96.904C162.445 96.904 162.212 97.0767 162.063 97.422C161.923 97.7673 161.853 98.29 161.853 98.99C161.853 99.69 161.923 100.217 162.063 100.572C162.212 100.917 162.445 101.09 162.763 101.09C163.089 101.09 163.327 100.917 163.477 100.572C163.635 100.227 163.715 99.6993 163.715 98.99C163.715 98.29 163.635 97.7673 163.477 97.422C163.327 97.0767 163.089 96.904 162.763 96.904Z" fill="white"/>
<g filter="url(#filter2_d_1168_13851)">
<g clip-path="url(#clip2_1168_13851)">
<rect x="43.6667" y="123" width="216" height="48" rx="24" fill="#292929"/>
<rect x="43.6667" y="123" width="142" height="48" rx="24" fill="url(#paint3_linear_1168_13851)"/>
<rect x="138.667" y="124" width="46" height="46" rx="23" fill="#292929"/>
<rect x="153.667" y="139" width="16" height="16" rx="8" fill="url(#paint4_linear_1168_13851)"/>
</g>
</g>
<path d="M184.792 188C184.792 189.348 184.347 190.659 183.526 191.729C182.705 192.798 181.554 193.567 180.252 193.916C178.95 194.265 177.568 194.175 176.323 193.659C175.077 193.143 174.037 192.23 173.362 191.063C172.688 189.895 172.418 188.537 172.594 187.201C172.77 185.864 173.382 184.622 174.336 183.669C175.289 182.716 176.53 182.103 177.867 181.927C179.204 181.751 180.562 182.021 181.729 182.696" stroke="url(#paint5_linear_1168_13851)" stroke-width="1.75" stroke-linecap="round"/>
<path d="M191.195 183.6H194.207C195.851 183.6 197.027 184.812 197.027 186.504C197.027 188.184 195.851 189.396 194.207 189.396H192.287V192H191.195V183.6ZM192.287 188.412H194.147C195.179 188.412 195.935 187.608 195.935 186.504C195.935 185.388 195.179 184.584 194.147 184.584H192.287V188.412ZM199.019 192H197.975V183.6H199.019V192ZM205.599 188.928C205.599 189.132 205.599 189.288 205.575 189.54H201.291C201.315 190.608 201.975 191.232 203.031 191.232C203.763 191.232 204.267 190.944 204.495 190.416H205.539C205.347 191.436 204.327 192.144 203.031 192.144C201.327 192.144 200.259 191.016 200.259 189.228C200.259 187.476 201.339 186.324 202.983 186.324C204.543 186.324 205.599 187.404 205.599 188.928ZM201.291 188.736H204.579C204.579 187.764 203.979 187.164 202.971 187.164C201.963 187.164 201.339 187.8 201.291 188.736ZM209.098 192.144C207.334 192.144 206.362 190.872 206.362 189.24C206.362 187.608 207.406 186.324 209.122 186.324C209.998 186.324 210.718 186.768 211.066 187.452V186.468H212.098V192H211.066V191.028C210.718 191.712 209.926 192.144 209.098 192.144ZM209.242 191.208C210.454 191.208 211.114 190.308 211.114 189.24C211.114 188.172 210.454 187.26 209.242 187.26C208.102 187.26 207.394 188.1 207.394 189.24C207.394 190.368 208.102 191.208 209.242 191.208ZM215.624 192.144C214.268 192.144 213.332 191.364 213.332 190.344H214.364C214.364 190.884 214.868 191.304 215.684 191.304C216.296 191.304 216.704 191.004 216.704 190.512C216.704 190.14 216.536 189.888 215.876 189.72L214.748 189.432C213.932 189.204 213.5 188.676 213.5 187.908C213.5 186.972 214.364 186.324 215.564 186.324C216.884 186.324 217.688 186.96 217.688 187.992H216.668C216.668 187.464 216.248 187.128 215.528 187.128C214.952 187.128 214.532 187.404 214.532 187.86C214.532 188.208 214.736 188.46 215.336 188.628L216.476 188.94C217.292 189.168 217.76 189.708 217.76 190.476C217.76 191.532 216.932 192.144 215.624 192.144ZM223.942 188.928C223.942 189.132 223.942 189.288 223.918 189.54H219.634C219.658 190.608 220.318 191.232 221.374 191.232C222.106 191.232 222.61 190.944 222.838 190.416H223.882C223.69 191.436 222.67 192.144 221.374 192.144C219.67 192.144 218.602 191.016 218.602 189.228C218.602 187.476 219.682 186.324 221.326 186.324C222.886 186.324 223.942 187.404 223.942 188.928ZM219.634 188.736H222.922C222.922 187.764 222.322 187.164 221.314 187.164C220.306 187.164 219.682 187.8 219.634 188.736ZM230.211 192H229.335L227.295 186.468H228.435L229.755 190.512L231.111 186.468H232.227L233.571 190.512L234.903 186.468H236.043L234.003 192H233.115L231.663 187.752L230.211 192ZM238.955 192.144C237.191 192.144 236.219 190.872 236.219 189.24C236.219 187.608 237.263 186.324 238.979 186.324C239.855 186.324 240.575 186.768 240.923 187.452V186.468H241.955V192H240.923V191.028C240.575 191.712 239.783 192.144 238.955 192.144ZM239.099 191.208C240.311 191.208 240.971 190.308 240.971 189.24C240.971 188.172 240.311 187.26 239.099 187.26C237.959 187.26 237.251 188.1 237.251 189.24C237.251 190.368 237.959 191.208 239.099 191.208ZM244.149 185.52C243.645 185.52 243.297 185.148 243.297 184.68C243.297 184.212 243.645 183.828 244.149 183.828C244.641 183.828 244.989 184.212 244.989 184.68C244.989 185.148 244.641 185.52 244.149 185.52ZM244.665 192H243.633V186.468H244.665V192ZM248.665 191.136C248.869 191.136 249.205 191.1 249.361 191.064V191.988C249.157 192.036 248.785 192.072 248.425 192.072C247.777 192.072 246.733 191.952 246.733 190.164V187.344H245.737V186.468H246.733V184.716H247.777V186.468H249.169V187.344H247.777V189.936C247.777 190.992 248.137 191.136 248.665 191.136ZM251.31 192.084C250.83 192.084 250.446 191.688 250.446 191.208C250.446 190.728 250.83 190.332 251.31 190.332C251.802 190.332 252.198 190.728 252.198 191.208C252.198 191.688 251.802 192.084 251.31 192.084ZM254.624 192.084C254.144 192.084 253.76 191.688 253.76 191.208C253.76 190.728 254.144 190.332 254.624 190.332C255.116 190.332 255.512 190.728 255.512 191.208C255.512 191.688 255.116 192.084 254.624 192.084ZM257.937 192.084C257.457 192.084 257.073 191.688 257.073 191.208C257.073 190.728 257.457 190.332 257.937 190.332C258.429 190.332 258.825 190.728 258.825 191.208C258.825 191.688 258.429 192.084 257.937 192.084Z" fill="#B3B3B3"/>
</g>
<defs>
<filter id="filter0_f_1168_13851" x="-34.6" y="-11.6" width="371.2" height="371.2" filterUnits="userSpaceOnUse" color-interpolation-filters="sRGB">
<feFlood flood-opacity="0" result="BackgroundImageFix"/>
<feBlend mode="normal" in="SourceGraphic" in2="BackgroundImageFix" result="shape"/>
<feGaussianBlur stdDeviation="79.8" result="effect1_foregroundBlur_1168_13851"/>
</filter>
<filter id="filter2_d_1168_13851" x="39.6667" y="121" width="224" height="56" filterUnits="userSpaceOnUse" color-interpolation-filters="sRGB">
<feFlood flood-opacity="0" result="BackgroundImageFix"/>
<feColorMatrix in="SourceAlpha" type="matrix" values="0 0 0 0 0 0 0 0 0 0 0 0 0 0 0 0 0 0 127 0" result="hardAlpha"/>
<feOffset dy="2"/>
<feGaussianBlur stdDeviation="2"/>
<feComposite in2="hardAlpha" operator="out"/>
<feColorMatrix type="matrix" values="0 0 0 0 1 0 0 0 0 1 0 0 0 0 1 0 0 0 0.2 0"/>
<feBlend mode="normal" in2="BackgroundImageFix" result="effect1_dropShadow_1168_13851"/>
<feBlend mode="normal" in="SourceGraphic" in2="effect1_dropShadow_1168_13851" result="shape"/>
</filter>
<linearGradient id="paint0_linear_1168_13851" x1="-245" y1="30" x2="315" y2="35.5" gradientUnits="userSpaceOnUse">
<stop stop-color="#3D3D3D"/>
<stop offset="0.610602" stop-color="#0F0F0F"/>
</linearGradient>
<linearGradient id="paint1_linear_1168_13851" x1="-260" y1="26.5" x2="315" y2="35.5" gradientUnits="userSpaceOnUse">
<stop stop-color="#3D3D3D"/>
<stop offset="0.691104" stop-color="#0F0F0F"/>
</linearGradient>
<linearGradient id="paint2_linear_1168_13851" x1="611" y1="35.1263" x2="-14" y2="35.1263" gradientUnits="userSpaceOnUse">
<stop stop-color="#3D3D3D"/>
<stop offset="0.693439" stop-color="#0F0F0F"/>
</linearGradient>
<linearGradient id="paint3_linear_1168_13851" x1="114.667" y1="123" x2="114.667" y2="171" gradientUnits="userSpaceOnUse">
<stop stop-color="white"/>
<stop offset="1" stop-color="#666666"/>
</linearGradient>
<linearGradient id="paint4_linear_1168_13851" x1="161.667" y1="139" x2="161.667" y2="155" gradientUnits="userSpaceOnUse">
<stop stop-color="white"/>
<stop offset="1" stop-color="#666666"/>
</linearGradient>
<linearGradient id="paint5_linear_1168_13851" x1="189.167" y1="177.063" x2="193.16" y2="184.723" gradientUnits="userSpaceOnUse">
<stop stop-color="#7A7A7A"/>
<stop offset="1" stop-color="#3D3D3D"/>
</linearGradient>
<clipPath id="clip0_1168_13851">
<rect width="302.667" height="276" rx="16" fill="white"/>
</clipPath>
<clipPath id="clip1_1168_13851">
<rect width="312" height="71" fill="white" transform="translate(-5 138)"/>
</clipPath>
<clipPath id="clip2_1168_13851">
<rect x="43.6667" y="123" width="216" height="48" rx="24" fill="white"/>
</clipPath>
</defs>
</svg>
