<svg width="303" height="276" viewBox="0 0 303 276" fill="none" xmlns="http://www.w3.org/2000/svg">
<g clip-path="url(#clip0_1980_1281)">
<rect width="302.667" height="276" fill="#0F0F0F"/>
<rect width="312" height="71" transform="translate(-5 -4)" fill="url(#paint0_linear_1980_1281)"/>
<rect width="312" height="71" transform="translate(-5 67)" fill="url(#paint1_linear_1980_1281)"/>
<g clip-path="url(#clip1_1980_1281)">
<rect width="312" height="71" transform="translate(-5 138)" fill="#0F0F0F"/>
<g filter="url(#filter0_f_1980_1281)">
<circle cx="151" cy="174" r="26" fill="#666666"/>
</g>
</g>
<rect width="312" height="71" transform="translate(-5 209)" fill="url(#paint2_linear_1980_1281)"/>
<rect x="72" y="50.5" width="159" height="45" rx="9.5" fill="#1E1E1E"/>
<rect x="72" y="50.5" width="159" height="45" rx="9.5" stroke="#2E2E2E"/>
<path d="M89.044 66.002C90.108 66.128 91.018 66.954 91.018 68.326C91.018 69.992 89.856 71 87.98 71H84.62V61.2H87.84C89.73 61.2 90.892 62.152 90.892 63.734C90.892 65.064 90.15 65.778 89.044 66.002ZM87.798 62.334H85.894V65.47H87.882C88.932 65.47 89.618 64.868 89.618 63.902C89.618 62.894 88.932 62.334 87.798 62.334ZM85.894 69.866H87.952C89.058 69.866 89.744 69.25 89.744 68.2C89.744 67.234 89.044 66.59 88.064 66.59H85.894V69.866ZM95.4961 71.168C93.3961 71.168 92.1361 69.656 92.1361 67.78C92.1361 65.89 93.3961 64.378 95.4961 64.378C97.5821 64.378 98.8561 65.89 98.8561 67.78C98.8561 69.656 97.5821 71.168 95.4961 71.168ZM95.4961 70.076C96.8541 70.076 97.6381 69.068 97.6381 67.78C97.6381 66.478 96.8541 65.47 95.4961 65.47C94.1381 65.47 93.3401 66.478 93.3401 67.78C93.3401 69.068 94.1381 70.076 95.4961 70.076ZM103.204 71.168C101.104 71.168 99.8438 69.656 99.8438 67.78C99.8438 65.89 101.104 64.378 103.204 64.378C105.29 64.378 106.564 65.89 106.564 67.78C106.564 69.656 105.29 71.168 103.204 71.168ZM103.204 70.076C104.562 70.076 105.346 69.068 105.346 67.78C105.346 66.478 104.562 65.47 103.204 65.47C101.846 65.47 101.048 66.478 101.048 67.78C101.048 69.068 101.846 70.076 103.204 70.076ZM112.061 64.546H113.615L110.493 67.668L113.615 71H112.019L109.191 67.948V71H107.987V61.2H109.191V67.514L112.061 64.546ZM115.649 71.098C115.089 71.098 114.641 70.636 114.641 70.076C114.641 69.516 115.089 69.054 115.649 69.054C116.223 69.054 116.685 69.516 116.685 70.076C116.685 70.636 116.223 71.098 115.649 71.098ZM119.515 71.098C118.955 71.098 118.507 70.636 118.507 70.076C118.507 69.516 118.955 69.054 119.515 69.054C120.089 69.054 120.551 69.516 120.551 70.076C120.551 70.636 120.089 71.098 119.515 71.098ZM123.38 71.098C122.82 71.098 122.372 70.636 122.372 70.076C122.372 69.516 122.82 69.054 123.38 69.054C123.954 69.054 124.416 69.516 124.416 70.076C124.416 70.636 123.954 71.098 123.38 71.098Z" fill="#B3B3B3"/>
<g clip-path="url(#clip2_1980_1281)">
<rect x="83.5" y="80" width="136" height="8" rx="4" fill="#2E2E2E"/>
<rect x="74" y="80" width="51" height="8" rx="4" fill="#666666"/>
</g>
<g filter="url(#filter1_d_1980_1281)">
<rect x="43" y="114" width="217" height="48" rx="10" fill="#1E1E1E" shape-rendering="crispEdges"/>
<rect x="43.5" y="114.5" width="216" height="47" rx="9.5" stroke="#2E2E2E" shape-rendering="crispEdges"/>
<path d="M55.394 143H54.12V133.2H59.692V134.348H55.394V137.89H59.692V139.038H55.394V143ZM61.9632 135.44C61.3752 135.44 60.9692 135.006 60.9692 134.46C60.9692 133.914 61.3752 133.466 61.9632 133.466C62.5372 133.466 62.9432 133.914 62.9432 134.46C62.9432 135.006 62.5372 135.44 61.9632 135.44ZM62.5652 143H61.3612V136.546H62.5652V143ZM65.7478 143H64.5298V133.2H65.7478V143ZM68.93 143H67.712V133.2H68.93V143ZM78.3133 133.004L74.5893 143H73.3853L77.1093 133.004H78.3133ZM85.7473 143.224C83.5213 143.224 82.2053 141.978 82.2053 139.878H83.4793C83.4793 141.25 84.3333 142.104 85.7333 142.104C86.9653 142.104 87.6653 141.516 87.6653 140.494C87.6653 139.626 87.2313 139.15 86.0973 138.758L84.4733 138.184C83.1573 137.764 82.4993 136.91 82.4993 135.608C82.4993 134.04 83.7593 132.976 85.5793 132.976C87.5113 132.976 88.7573 134.152 88.7573 135.972H87.4833C87.4833 134.768 86.7833 134.068 85.5373 134.068C84.4453 134.068 83.7733 134.656 83.7733 135.538C83.7733 136.364 84.3053 136.882 85.5093 137.288L87.0213 137.82C88.2813 138.254 88.9393 139.122 88.9393 140.452C88.9393 142.132 87.6933 143.224 85.7473 143.224ZM93.9043 136.378C95.5003 136.378 96.3123 137.302 96.3123 139.024V143H95.0943V139.556C95.0943 138.114 94.6323 137.428 93.4703 137.428C92.2663 137.428 91.6503 138.282 91.6503 139.584V143H90.4323V133.2H91.6503V137.736C92.0003 136.91 92.7843 136.378 93.9043 136.378ZM100.882 143.168C98.824 143.168 97.69 141.684 97.69 139.78C97.69 137.876 98.908 136.378 100.91 136.378C101.932 136.378 102.772 136.896 103.178 137.694V136.546H104.382V143H103.178V141.866C102.772 142.664 101.848 143.168 100.882 143.168ZM101.05 142.076C102.464 142.076 103.234 141.026 103.234 139.78C103.234 138.534 102.464 137.47 101.05 137.47C99.72 137.47 98.894 138.45 98.894 139.78C98.894 141.096 99.72 142.076 101.05 142.076ZM107.557 143H106.339V136.546H107.557V138.016C107.809 136.924 108.635 136.448 109.447 136.448C109.671 136.448 109.881 136.462 110.035 136.504V137.624C109.825 137.582 109.657 137.582 109.433 137.582C108.159 137.582 107.557 138.744 107.557 140.186V143ZM116.765 139.416C116.765 139.654 116.765 139.836 116.737 140.13H111.739C111.767 141.376 112.537 142.104 113.769 142.104C114.623 142.104 115.211 141.768 115.477 141.152H116.695C116.471 142.342 115.281 143.168 113.769 143.168C111.781 143.168 110.535 141.852 110.535 139.766C110.535 137.722 111.795 136.378 113.713 136.378C115.533 136.378 116.765 137.638 116.765 139.416ZM111.739 139.192H115.575C115.575 138.058 114.875 137.358 113.699 137.358C112.523 137.358 111.795 138.1 111.739 139.192ZM125.633 133.004L121.909 143H120.705L124.429 133.004H125.633ZM133.599 143H132.381L129.049 133.2H130.435L132.983 141.012L135.545 133.2H136.931L133.599 143ZM138.367 135.44C137.779 135.44 137.373 135.006 137.373 134.46C137.373 133.914 137.779 133.466 138.367 133.466C138.941 133.466 139.347 133.914 139.347 134.46C139.347 135.006 138.941 135.44 138.367 135.44ZM138.969 143H137.765V136.546H138.969V143ZM143.09 143.168C141.508 143.168 140.416 142.258 140.416 141.068H141.62C141.62 141.698 142.208 142.188 143.16 142.188C143.874 142.188 144.35 141.838 144.35 141.264C144.35 140.83 144.154 140.536 143.384 140.34L142.068 140.004C141.116 139.738 140.612 139.122 140.612 138.226C140.612 137.134 141.62 136.378 143.02 136.378C144.56 136.378 145.498 137.12 145.498 138.324H144.308C144.308 137.708 143.818 137.316 142.978 137.316C142.306 137.316 141.816 137.638 141.816 138.17C141.816 138.576 142.054 138.87 142.754 139.066L144.084 139.43C145.036 139.696 145.582 140.326 145.582 141.222C145.582 142.454 144.616 143.168 143.09 143.168ZM147.685 135.44C147.097 135.44 146.691 135.006 146.691 134.46C146.691 133.914 147.097 133.466 147.685 133.466C148.259 133.466 148.665 133.914 148.665 134.46C148.665 135.006 148.259 135.44 147.685 135.44ZM148.287 143H147.083V136.546H148.287V143ZM153.093 143.168C150.993 143.168 149.733 141.656 149.733 139.78C149.733 137.89 150.993 136.378 153.093 136.378C155.179 136.378 156.453 137.89 156.453 139.78C156.453 141.656 155.179 143.168 153.093 143.168ZM153.093 142.076C154.451 142.076 155.235 141.068 155.235 139.78C155.235 138.478 154.451 137.47 153.093 137.47C151.735 137.47 150.937 138.478 150.937 139.78C150.937 141.068 151.735 142.076 153.093 142.076ZM159.095 143H157.877V136.546H159.095V137.736C159.445 136.91 160.229 136.378 161.349 136.378C162.931 136.378 163.743 137.302 163.743 139.024V143H162.539V139.556C162.539 138.114 162.063 137.428 160.915 137.428C159.711 137.428 159.095 138.282 159.095 139.584V143Z" fill="#B3B3B3"/>
<rect x="177" y="122" width="73" height="32" rx="8" fill="url(#paint3_linear_1980_1281)"/>
<path d="M189.032 143.224C186.806 143.224 185.49 141.978 185.49 139.878H186.764C186.764 141.25 187.618 142.104 189.018 142.104C190.25 142.104 190.95 141.516 190.95 140.494C190.95 139.626 190.516 139.15 189.382 138.758L187.758 138.184C186.442 137.764 185.784 136.91 185.784 135.608C185.784 134.04 187.044 132.976 188.864 132.976C190.796 132.976 192.042 134.152 192.042 135.972H190.768C190.768 134.768 190.068 134.068 188.822 134.068C187.73 134.068 187.058 134.656 187.058 135.538C187.058 136.364 187.59 136.882 188.794 137.288L190.306 137.82C191.566 138.254 192.224 139.122 192.224 140.452C192.224 142.132 190.978 143.224 189.032 143.224ZM196.446 143.168C194.458 143.168 193.24 141.782 193.24 139.78C193.24 137.778 194.458 136.392 196.446 136.392C198.182 136.392 199.302 137.344 199.456 138.786H198.238C198.07 137.932 197.454 137.484 196.432 137.484C195.2 137.484 194.444 138.338 194.444 139.78C194.444 141.208 195.2 142.076 196.432 142.076C197.454 142.076 198.07 141.628 198.238 140.816H199.456C199.302 142.23 198.182 143.168 196.446 143.168ZM204.363 136.378C205.959 136.378 206.771 137.302 206.771 139.024V143H205.553V139.556C205.553 138.114 205.091 137.428 203.929 137.428C202.725 137.428 202.109 138.282 202.109 139.584V143H200.891V133.2H202.109V137.736C202.459 136.91 203.243 136.378 204.363 136.378ZM214.379 139.416C214.379 139.654 214.379 139.836 214.351 140.13H209.353C209.381 141.376 210.151 142.104 211.383 142.104C212.237 142.104 212.825 141.768 213.091 141.152H214.309C214.085 142.342 212.895 143.168 211.383 143.168C209.395 143.168 208.149 141.852 208.149 139.766C208.149 137.722 209.409 136.378 211.327 136.378C213.147 136.378 214.379 137.638 214.379 139.416ZM209.353 139.192H213.189C213.189 138.058 212.489 137.358 211.313 137.358C210.137 137.358 209.409 138.1 209.353 139.192ZM220.757 137.694V133.2H221.961V143H220.757V141.866C220.351 142.664 219.427 143.168 218.461 143.168C216.403 143.168 215.269 141.684 215.269 139.78C215.269 137.876 216.487 136.378 218.489 136.378C219.511 136.378 220.351 136.896 220.757 137.694ZM218.629 142.076C220.043 142.076 220.813 141.026 220.813 139.78C220.813 138.534 220.043 137.47 218.629 137.47C217.299 137.47 216.473 138.45 216.473 139.78C216.473 141.096 217.299 142.076 218.629 142.076ZM226.298 143.168C224.856 143.168 223.848 142.3 223.848 140.522V136.546H225.066V140.242C225.066 141.376 225.486 142.118 226.634 142.118C227.964 142.118 228.468 141.11 228.468 140.074V136.546H229.686V143H228.468V141.824C228.118 142.622 227.362 143.168 226.298 143.168ZM232.858 143H231.64V133.2H232.858V143ZM240.534 139.416C240.534 139.654 240.534 139.836 240.506 140.13H235.508C235.536 141.376 236.306 142.104 237.538 142.104C238.392 142.104 238.98 141.768 239.246 141.152H240.464C240.24 142.342 239.05 143.168 237.538 143.168C235.55 143.168 234.304 141.852 234.304 139.766C234.304 137.722 235.564 136.378 237.482 136.378C239.302 136.378 240.534 137.638 240.534 139.416ZM235.508 139.192H239.344C239.344 138.058 238.644 137.358 237.468 137.358C236.292 137.358 235.564 138.1 235.508 139.192Z" fill="black"/>
</g>
<rect x="72" y="180.5" width="159" height="45" rx="9.5" fill="#1E1E1E"/>
<rect x="72" y="180.5" width="159" height="45" rx="9.5" stroke="#2E2E2E"/>
<path d="M90.724 201H84.242C84.242 198.886 84.914 197.682 86.608 196.8L88.064 196.03C88.932 195.582 89.38 194.924 89.38 194.042C89.38 193.09 88.694 192.446 87.714 192.446C86.496 192.446 85.768 193.244 85.768 194.644H84.452C84.452 192.628 85.726 191.326 87.714 191.326C89.562 191.326 90.724 192.348 90.724 193.986C90.724 195.19 90.066 196.198 88.862 196.856L87.42 197.626C86.244 198.256 85.852 198.774 85.726 199.852H90.724V201ZM97.3367 196.772H98.8207V197.92H97.3367V201H96.0767V197.92H92.2407V191.48H93.5007V196.772H96.0767V193.958H97.3367V196.772ZM104.298 191.004L100.574 201H99.3698L103.094 191.004H104.298ZM106.553 201H105.139L109.563 192.656H104.929V191.48H111.481L106.553 201ZM117.005 201H115.787V194.546H117.005V196.016C117.257 194.924 118.083 194.448 118.895 194.448C119.119 194.448 119.329 194.462 119.483 194.504V195.624C119.273 195.582 119.105 195.582 118.881 195.582C117.607 195.582 117.005 196.744 117.005 198.186V201ZM126.213 197.416C126.213 197.654 126.213 197.836 126.185 198.13H121.187C121.215 199.376 121.985 200.104 123.217 200.104C124.071 200.104 124.659 199.768 124.925 199.152H126.143C125.919 200.342 124.729 201.168 123.217 201.168C121.229 201.168 119.983 199.852 119.983 197.766C119.983 195.722 121.243 194.378 123.161 194.378C124.981 194.378 126.213 195.638 126.213 197.416ZM121.187 197.192H125.023C125.023 196.058 124.323 195.358 123.147 195.358C121.971 195.358 121.243 196.1 121.187 197.192ZM131.246 194.378C133.094 194.378 134.368 195.764 134.368 197.78C134.368 199.754 133.038 201.168 131.176 201.168C130.182 201.168 129.286 200.664 128.866 199.866V203.982H127.662V194.546H128.866V195.694C129.286 194.882 130.21 194.378 131.246 194.378ZM131.008 200.076C132.254 200.076 133.15 199.124 133.15 197.78C133.15 196.436 132.254 195.47 131.008 195.47C129.72 195.47 128.81 196.422 128.81 197.78C128.81 199.124 129.72 200.076 131.008 200.076ZM137.011 201H135.793V191.2H137.011V201ZM143.596 197.864V194.546H144.8V201.126C144.8 202.148 144.492 202.932 143.932 203.45C143.414 203.898 142.7 204.15 141.818 204.15C140.894 204.15 140.138 203.912 139.634 203.478C139.172 203.086 138.92 202.526 138.906 201.812H140.124C140.18 202.596 140.6 203.128 141.804 203.128C142.896 203.128 143.596 202.512 143.596 201.042V199.838C143.218 200.622 142.448 201.154 141.356 201.154C139.676 201.154 138.906 200.034 138.906 198.396V194.546H140.11V198.144C140.11 199.292 140.488 200.076 141.762 200.076C143.008 200.076 143.596 199.026 143.596 197.864Z" fill="#B3B3B3"/>
<g clip-path="url(#clip3_1980_1281)">
<rect x="83.5" y="210" width="136" height="8" rx="4" fill="#2E2E2E"/>
<rect x="74" y="210" width="132" height="8" rx="4" fill="#666666"/>
</g>
<path d="M253.68 161.261L257.972 162.613C260.447 163.394 261.684 163.784 261.695 164.535C261.706 165.286 260.471 165.714 258.001 166.571C257.265 166.826 256.898 166.953 256.656 167.231C256.413 167.508 256.337 167.889 256.183 168.653C255.667 171.215 255.409 172.497 254.664 172.587C253.918 172.678 253.365 171.504 252.258 169.157L250.339 165.088C249.18 162.63 248.601 161.401 249.197 160.718C249.794 160.035 251.089 160.444 253.68 161.261Z" stroke="#B3B3B3" stroke-width="1.66667" stroke-linejoin="round"/>
<path d="M250.384 157.844L250.272 156.181M247.115 158.901L245.783 157.738M246.509 162.283L244.846 162.395M247.565 165.552L246.403 166.884M254.929 157.119L253.766 158.45" stroke="#B3B3B3" stroke-width="1.66667" stroke-linecap="round" stroke-linejoin="round"/>
</g>
<defs>
<filter id="filter0_f_1980_1281" x="-34.6" y="-11.6" width="371.2" height="371.2" filterUnits="userSpaceOnUse" color-interpolation-filters="sRGB">
<feFlood flood-opacity="0" result="BackgroundImageFix"/>
<feBlend mode="normal" in="SourceGraphic" in2="BackgroundImageFix" result="shape"/>
<feGaussianBlur stdDeviation="79.8" result="effect1_foregroundBlur_1980_1281"/>
</filter>
<filter id="filter1_d_1980_1281" x="39" y="111" width="225" height="56" filterUnits="userSpaceOnUse" color-interpolation-filters="sRGB">
<feFlood flood-opacity="0" result="BackgroundImageFix"/>
<feColorMatrix in="SourceAlpha" type="matrix" values="0 0 0 0 0 0 0 0 0 0 0 0 0 0 0 0 0 0 127 0" result="hardAlpha"/>
<feOffset dy="1"/>
<feGaussianBlur stdDeviation="2"/>
<feComposite in2="hardAlpha" operator="out"/>
<feColorMatrix type="matrix" values="0 0 0 0 1 0 0 0 0 1 0 0 0 0 1 0 0 0 0.2 0"/>
<feBlend mode="normal" in2="BackgroundImageFix" result="effect1_dropShadow_1980_1281"/>
<feBlend mode="normal" in="SourceGraphic" in2="effect1_dropShadow_1980_1281" result="shape"/>
</filter>
<linearGradient id="paint0_linear_1980_1281" x1="-245" y1="30" x2="315" y2="35.5" gradientUnits="userSpaceOnUse">
<stop stop-color="#3D3D3D"/>
<stop offset="0.610602" stop-color="#0F0F0F"/>
</linearGradient>
<linearGradient id="paint1_linear_1980_1281" x1="-260" y1="26.5" x2="315" y2="35.5" gradientUnits="userSpaceOnUse">
<stop stop-color="#3D3D3D"/>
<stop offset="0.691104" stop-color="#0F0F0F"/>
</linearGradient>
<linearGradient id="paint2_linear_1980_1281" x1="611" y1="35.1263" x2="-14" y2="35.1263" gradientUnits="userSpaceOnUse">
<stop stop-color="#3D3D3D"/>
<stop offset="0.693439" stop-color="#0F0F0F"/>
</linearGradient>
<linearGradient id="paint3_linear_1980_1281" x1="213.5" y1="122" x2="213.5" y2="154" gradientUnits="userSpaceOnUse">
<stop stop-color="white"/>
<stop offset="1" stop-color="#666666"/>
</linearGradient>
<clipPath id="clip0_1980_1281">
<rect width="302.667" height="276" fill="white"/>
</clipPath>
<clipPath id="clip1_1980_1281">
<rect width="312" height="71" fill="white" transform="translate(-5 138)"/>
</clipPath>
<clipPath id="clip2_1980_1281">
<rect x="83.5" y="80" width="136" height="8" rx="4" fill="white"/>
</clipPath>
<clipPath id="clip3_1980_1281">
<rect x="83.5" y="210" width="136" height="8" rx="4" fill="white"/>
</clipPath>
</defs>
</svg>
