<svg width="32" height="32" viewBox="0 0 32 32" fill="none" xmlns="http://www.w3.org/2000/svg">
<rect x="0.5" y="0.5" width="31" height="31" rx="7.5" stroke="#292929"/>
<path fill-rule="evenodd" clip-rule="evenodd" d="M15.9998 16.0001C15.9998 14.1592 17.4922 12.6667 19.3331 12.6667C21.174 12.6667 22.6664 14.1592 22.6664 16.0001C22.6664 17.841 21.174 19.3334 19.3331 19.3334C17.4922 19.3334 15.9998 17.841 15.9998 16.0001Z" fill="#1ABCFE"/>
<path fill-rule="evenodd" clip-rule="evenodd" d="M9.33301 22.6666C9.33301 20.8257 10.8254 19.3333 12.6663 19.3333H15.9997V22.6666C15.9997 24.5075 14.5073 25.9999 12.6663 25.9999C10.8254 25.9999 9.33301 24.5075 9.33301 22.6666Z" fill="#0ACF83"/>
<path fill-rule="evenodd" clip-rule="evenodd" d="M15.9998 6V12.6667H19.3331C21.174 12.6667 22.6664 11.1742 22.6664 9.33333C22.6664 7.49238 21.174 6 19.3331 6H15.9998Z" fill="#FF7262"/>
<path fill-rule="evenodd" clip-rule="evenodd" d="M9.33325 9.33333C9.33325 11.1742 10.8256 12.6667 12.6666 12.6667H15.9999V6H12.6666C10.8256 6 9.33325 7.49238 9.33325 9.33333Z" fill="#F24E1E"/>
<path fill-rule="evenodd" clip-rule="evenodd" d="M9.33301 16.0001C9.33301 17.841 10.8254 19.3334 12.6663 19.3334H15.9997V12.6667H12.6663C10.8254 12.6667 9.33301 14.1592 9.33301 16.0001Z" fill="#A259FF"/>
</svg>
