<svg width="20" height="20" viewBox="0 0 20 20" fill="none" xmlns="http://www.w3.org/2000/svg">
<path d="M13.3333 11.25V14.5833C13.3333 15.7618 13.3333 16.3511 13.6993 16.7173C14.0655 17.0833 14.6548 17.0833 15.8333 17.0833C17.0118 17.0833 17.601 17.0833 17.9671 16.7173C18.3333 16.3511 18.3333 15.7618 18.3333 14.5833V11.25C18.3333 10.0715 18.3333 9.48225 17.9671 9.11617C17.601 8.75 17.0118 8.75 15.8333 8.75C14.6548 8.75 14.0655 8.75 13.6993 9.11617C13.3333 9.48225 13.3333 10.0715 13.3333 11.25Z" stroke="white" stroke-width="1.25" stroke-linecap="round" stroke-linejoin="round"/>
<path d="M3.33325 13.7503V7.08366C3.33325 5.11948 3.33325 4.13738 3.9438 3.52718C4.55436 2.91699 5.53704 2.91699 7.50238 2.91699H13.3392C15.3045 2.91699 16.2872 2.91699 16.8978 3.52718C17.3622 3.99133 17.4733 4.67063 17.4999 5.83366" stroke="white" stroke-width="1.25" stroke-linecap="round" stroke-linejoin="round"/>
<path d="M10.8332 17.0838H2.09633C1.77721 17.0838 1.56966 16.7578 1.71238 16.4808L3.33317 13.7505H10.8332" stroke="white" stroke-width="1.25" stroke-linecap="round" stroke-linejoin="round"/>
</svg>
