<svg width="128" height="129" viewBox="0 0 128 129" fill="none" xmlns="http://www.w3.org/2000/svg">
<path d="M58.6667 5.54688L69.3333 5.54688C89.4464 5.54688 99.5035 5.54687 105.751 11.7952C112 18.0437 112 28.1003 112 48.2135L112 58.8802C112 78.9933 112 89.0503 105.751 95.2983C99.5035 101.547 89.4464 101.547 69.3333 101.547L58.6667 101.547C38.5534 101.547 28.4968 101.547 22.2484 95.2983C16 89.0503 16 78.9933 16 58.8802L16 48.2135C16 28.1003 16 18.0437 22.2484 11.7952C28.4968 5.54687 38.5534 5.54688 58.6667 5.54688Z" stroke="#7A7A7A" stroke-width="11.0933" stroke-linecap="round" stroke-linejoin="round"/>
<path d="M85.3332 123.093H42.6665" stroke="#7A7A7A" stroke-width="11.0933" stroke-linecap="round" stroke-linejoin="round"/>
</svg>
