<svg width="64" height="64" viewBox="0 0 64 64" fill="none" xmlns="http://www.w3.org/2000/svg">
<path d="M58.6668 33.3338C58.6668 32.0234 58.6527 29.3794 58.6247 28.0652C58.4506 19.8905 58.3634 15.8031 55.3471 12.7753C52.3306 9.74745 48.1327 9.64198 39.7367 9.43102C34.562 9.30099 29.4383 9.30099 24.2637 9.43099C15.8677 9.64193 11.6697 9.74739 8.65336 12.7752C5.63702 15.803 5.54987 19.8904 5.37552 28.0652C5.31947 30.6938 5.3195 33.3066 5.37555 35.9351C5.54987 44.11 5.63704 48.1972 8.65339 51.2252C11.6697 54.253 15.8677 54.3583 24.2637 54.5692C26.4044 54.6231 28.5364 54.6546 30.6668 54.6639" stroke="#E3E3E3" stroke-width="4" stroke-linecap="round" stroke-linejoin="round"/>
<path d="M18.6665 22.6665L26.5119 27.3049C31.0857 30.0092 32.914 30.0092 37.4878 27.3049L45.3332 22.6665" stroke="#E3E3E3" stroke-width="4" stroke-linecap="round" stroke-linejoin="round"/>
<path d="M37.3335 46.6667H58.6668M37.3335 46.6667C37.3335 44.7995 42.6516 41.3107 44.0002 40M37.3335 46.6667C37.3335 48.5339 42.6516 52.0227 44.0002 53.3333" stroke="#E3E3E3" stroke-width="4" stroke-linecap="round" stroke-linejoin="round"/>
</svg>
