<svg width="20" height="20" viewBox="0 0 20 20" fill="none" xmlns="http://www.w3.org/2000/svg">
<path d="M11.2499 1.6665H8.74992C6.78574 1.6665 5.80364 1.6665 5.19344 2.2767C4.58325 2.8869 4.58325 3.86899 4.58325 5.83317V14.1665C4.58325 16.1307 4.58325 17.1128 5.19344 17.723C5.80364 18.3332 6.78574 18.3332 8.74992 18.3332H11.2499C13.2141 18.3332 14.1962 18.3332 14.8064 17.723C15.4166 17.1128 15.4166 16.1307 15.4166 14.1665V5.83317C15.4166 3.86899 15.4166 2.8869 14.8064 2.2767C14.1962 1.6665 13.2141 1.6665 11.2499 1.6665Z" stroke="#B3B3B3" stroke-width="1.25" stroke-linecap="round" stroke-linejoin="round"/>
<path d="M11.6666 1.6665H8.33325L8.74992 2.49984H11.2499L11.6666 1.6665Z" stroke="#B3B3B3" stroke-width="1.25" stroke-linecap="round" stroke-linejoin="round"/>
</svg>
