<svg width="75" height="54" viewBox="0 0 75 54" fill="none" xmlns="http://www.w3.org/2000/svg">
<rect width="59" height="36" rx="18" fill="#3B82F6"/>
<path d="M16.4685 17.288C17.6845 17.432 18.7245 18.376 18.7245 19.944C18.7245 21.848 17.3965 23 15.2525 23H11.4125V11.8H15.0925C17.2525 11.8 18.5805 12.888 18.5805 14.696C18.5805 16.216 17.7325 17.032 16.4685 17.288ZM15.0445 13.096H12.8685V16.68H15.1405C16.3405 16.68 17.1245 15.992 17.1245 14.888C17.1245 13.736 16.3405 13.096 15.0445 13.096ZM12.8685 21.704H15.2205C16.4845 21.704 17.2685 21 17.2685 19.8C17.2685 18.696 16.4685 17.96 15.3485 17.96H12.8685V21.704ZM23.541 23.192C21.189 23.192 19.893 21.496 19.893 19.32C19.893 17.144 21.285 15.432 23.573 15.432C24.741 15.432 25.701 16.024 26.165 16.936V15.624H27.541V23H26.165V21.704C25.701 22.616 24.645 23.192 23.541 23.192ZM23.733 21.944C25.349 21.944 26.229 20.744 26.229 19.32C26.229 17.896 25.349 16.68 23.733 16.68C22.213 16.68 21.269 17.8 21.269 19.32C21.269 20.824 22.213 21.944 23.733 21.944ZM31.1701 23H29.7781V15.624H31.1701V17.304C31.4581 16.056 32.4021 15.512 33.3301 15.512C33.5861 15.512 33.8261 15.528 34.0021 15.576V16.856C33.7621 16.808 33.5701 16.808 33.3141 16.808C31.8581 16.808 31.1701 18.136 31.1701 19.784V23ZM36.7758 23H35.3838V15.624H36.7758V17.304C37.0638 16.056 38.0078 15.512 38.9358 15.512C39.1918 15.512 39.4318 15.528 39.6078 15.576V16.856C39.3678 16.808 39.1758 16.808 38.9198 16.808C37.4638 16.808 36.7758 18.136 36.7758 19.784V23ZM46.2694 19.416V15.624H47.6454V23.144C47.6454 24.312 47.2934 25.208 46.6534 25.8C46.0614 26.312 45.2454 26.6 44.2374 26.6C43.1814 26.6 42.3174 26.328 41.7414 25.832C41.2134 25.384 40.9254 24.744 40.9094 23.928H42.3014C42.3654 24.824 42.8454 25.432 44.2214 25.432C45.4694 25.432 46.2694 24.728 46.2694 23.048V21.672C45.8374 22.568 44.9574 23.176 43.7094 23.176C41.7894 23.176 40.9094 21.896 40.9094 20.024V15.624H42.2854V19.736C42.2854 21.048 42.7174 21.944 44.1734 21.944C45.5974 21.944 46.2694 20.744 46.2694 19.416Z" fill="white"/>
<path d="M61.2816 44.6323L56.2812 42.5959C53.397 41.4214 51.955 40.8343 52.0154 39.9349C52.0758 39.0357 53.5946 38.6438 56.632 37.86C57.5365 37.6266 57.9888 37.5099 58.3054 37.2019C58.622 36.8938 58.7511 36.445 59.0092 35.5472C59.8761 32.5325 60.3095 31.025 61.2101 30.9893C62.1108 30.9536 62.6581 32.4113 63.753 35.3266L65.6513 40.381C66.7975 43.4332 67.3707 44.9593 66.5908 45.7181C65.811 46.4768 64.3012 45.8619 61.2816 44.6323Z" fill="#3B82F6" stroke="#3B82F6" stroke-width="2" stroke-linejoin="round"/>
<path d="M64.8904 49.0404L64.863 51.0402M68.9038 48.0954L70.383 49.6158M69.9586 44.1095L71.9584 44.137M69.0136 40.0961L70.5341 38.6169M59.3841 49.4648L60.9045 47.9855" stroke="#3B82F6" stroke-width="2" stroke-linecap="round" stroke-linejoin="round"/>
</svg>
