<svg width="64" height="53" viewBox="0 0 64 53" fill="none" xmlns="http://www.w3.org/2000/svg">
<rect width="49" height="36" rx="18" fill="#3B82F6"/>
<path d="M16.9154 23H15.4594V13.176H12.1154V11.8H20.2594V13.176H16.9154V23ZM21.9349 14.36C21.2629 14.36 20.7989 13.864 20.7989 13.24C20.7989 12.616 21.2629 12.104 21.9349 12.104C22.5909 12.104 23.0549 12.616 23.0549 13.24C23.0549 13.864 22.5909 14.36 21.9349 14.36ZM22.6229 23H21.2469V15.624H22.6229V23ZM26.2601 23H24.8681V15.624H26.2601V16.968C26.5321 16.168 27.2841 15.432 28.4681 15.432C29.7641 15.432 30.5481 16.04 30.8201 17.016C31.1401 16.136 32.0521 15.432 33.2041 15.432C35.1881 15.432 35.8601 16.712 35.8601 18.328V23H34.4681V18.6C34.4681 17.208 33.8601 16.632 32.8681 16.632C31.7801 16.632 31.0601 17.368 31.0601 19.16V23H29.6681V18.712C29.6681 17.112 28.9801 16.632 28.0841 16.632C26.9481 16.632 26.2601 17.432 26.2601 19.16V23Z" fill="white"/>
<path d="M50.2818 43.632L45.2814 41.5957C42.3973 40.4212 40.9552 39.834 41.0157 38.9347C41.076 38.0354 42.5948 37.6435 45.6323 36.8598C46.5368 36.6264 46.989 36.5097 47.3057 36.2017C47.6222 35.8936 47.7513 35.4447 48.0095 34.547C48.8763 31.5322 49.3098 30.0247 50.2104 29.9891C51.111 29.9534 51.6584 31.411 52.7532 34.3263L54.6515 39.3808C55.7978 42.433 56.3709 43.9591 55.5911 44.7178C54.8112 45.4765 53.3014 44.8617 50.2818 43.632Z" fill="#3B82F6" stroke="#3B82F6" stroke-width="2" stroke-linejoin="round"/>
<path d="M53.8904 48.0403L53.863 50.0401M57.9038 47.0953L59.383 48.6158M58.9586 43.1094L60.9584 43.1369M58.0136 39.0961L59.5341 37.6168M48.3841 48.4647L49.9045 46.9855" stroke="#3B82F6" stroke-width="2" stroke-linecap="round" stroke-linejoin="round"/>
</svg>
