<svg width="79" height="53" viewBox="0 0 79 53" fill="none" xmlns="http://www.w3.org/2000/svg">
<rect x="16.7656" y="0.5" width="61" height="35" rx="17.5" fill="black"/>
<rect x="16.7656" y="0.5" width="61" height="35" rx="17.5" stroke="#B3B3B3"/>
<path d="M31.2874 23.256C28.7434 23.256 27.2394 21.832 27.2394 19.432H28.6954C28.6954 21 29.6714 21.976 31.2714 21.976C32.6794 21.976 33.4794 21.304 33.4794 20.136C33.4794 19.144 32.9834 18.6 31.6874 18.152L29.8314 17.496C28.3274 17.016 27.5754 16.04 27.5754 14.552C27.5754 12.76 29.0154 11.544 31.0954 11.544C33.3034 11.544 34.7274 12.888 34.7274 14.968H33.2714C33.2714 13.592 32.4714 12.792 31.0474 12.792C29.7994 12.792 29.0314 13.464 29.0314 14.472C29.0314 15.416 29.6394 16.008 31.0154 16.472L32.7434 17.08C34.1834 17.576 34.9354 18.568 34.9354 20.088C34.9354 22.008 33.5114 23.256 31.2874 23.256ZM43.2161 18.904C43.2161 19.176 43.2161 19.384 43.1841 19.72H37.4721C37.5041 21.144 38.3841 21.976 39.7921 21.976C40.7681 21.976 41.4401 21.592 41.7441 20.888H43.1361C42.8801 22.248 41.5201 23.192 39.7921 23.192C37.5201 23.192 36.0961 21.688 36.0961 19.304C36.0961 16.968 37.5361 15.432 39.7281 15.432C41.8081 15.432 43.2161 16.872 43.2161 18.904ZM37.4721 18.648H41.8561C41.8561 17.352 41.0561 16.552 39.7121 16.552C38.3681 16.552 37.5361 17.4 37.4721 18.648ZM47.807 23H46.671L43.423 15.624H44.911L47.231 21.144L49.567 15.624H51.055L47.807 23ZM58.3649 18.904C58.3649 19.176 58.3649 19.384 58.3329 19.72H52.6209C52.6529 21.144 53.5329 21.976 54.9409 21.976C55.9169 21.976 56.5889 21.592 56.8929 20.888H58.2849C58.0289 22.248 56.6689 23.192 54.9409 23.192C52.6689 23.192 51.2449 21.688 51.2449 19.304C51.2449 16.968 52.6849 15.432 54.8769 15.432C56.9569 15.432 58.3649 16.872 58.3649 18.904ZM52.6209 18.648H57.0049C57.0049 17.352 56.2049 16.552 54.8609 16.552C53.5169 16.552 52.6849 17.4 52.6209 18.648ZM61.4126 23H60.0206V15.624H61.4126V16.984C61.8126 16.04 62.7086 15.432 63.9886 15.432C65.7966 15.432 66.7246 16.488 66.7246 18.456V23H65.3486V19.064C65.3486 17.416 64.8046 16.632 63.4926 16.632C62.1166 16.632 61.4126 17.608 61.4126 19.096V23Z" fill="white"/>
<path d="M8.69371 39.2985L10.7949 34.325C12.0068 31.4564 12.6126 30.022 13.5111 30.0942C14.4095 30.1662 14.7816 31.69 15.5258 34.7374C15.7475 35.6448 15.8583 36.0986 16.1621 36.4192C16.4661 36.7397 16.9132 36.8746 17.8075 37.1444C20.8108 38.0504 22.3125 38.5034 22.3364 39.4044C22.3605 40.3054 20.8958 40.8338 17.9665 41.8907L12.8878 43.7231C9.82096 44.8296 8.28754 45.3828 7.53903 44.5932C6.79052 43.8036 7.42491 42.3019 8.69371 39.2985Z" fill="#B3B3B3" stroke="#B3B3B3" stroke-width="2" stroke-linejoin="round"/>
<path d="M4.2391 42.8499L2.23982 42.7964M5.13184 46.8752L3.59229 48.3346M9.10369 47.9817L9.05023 49.981M13.129 47.089L14.5884 48.6286M3.88628 37.3385L5.34565 38.8781" stroke="#B3B3B3" stroke-width="2" stroke-linecap="round" stroke-linejoin="round"/>
</svg>
