<svg width="123" height="53" viewBox="0 0 123 53" fill="none" xmlns="http://www.w3.org/2000/svg">
<rect x="16.7656" y="0.5" width="105" height="35" rx="17.5" fill="black"/>
<rect x="16.7656" y="0.5" width="105" height="35" rx="17.5" stroke="#B3B3B3"/>
<path d="M31.3426 23.256C28.8786 23.256 27.2786 21.88 27.2786 19.32V11.8H28.7346V19.24C28.7346 21.016 29.7586 21.944 31.3426 21.944C32.9426 21.944 33.9666 21.016 33.9666 19.24V11.8H35.4226V19.32C35.4226 21.88 33.8226 23.256 31.3426 23.256ZM39.0029 23H37.5469V11.8H39.0029V23ZM51.6574 23H45.2894V11.8H51.6574V13.112H46.7454V16.776H51.6574V18.088H46.7454V21.688H51.6574V23ZM55.1601 23H53.7681V15.624H55.1601V16.984C55.5601 16.04 56.4561 15.432 57.7361 15.432C59.5441 15.432 60.4721 16.488 60.4721 18.456V23H59.0961V19.064C59.0961 17.416 58.5521 16.632 57.2401 16.632C55.8641 16.632 55.1601 17.608 55.1601 19.096V23ZM68.3194 16.936V15.624H69.6954V22.808C69.6954 24.216 69.2474 25.272 68.4154 25.912C67.7914 26.376 66.9274 26.6 65.8714 26.6C64.8634 26.6 63.9194 26.36 63.2474 25.88C62.5914 25.416 62.1914 24.728 62.1594 23.928H63.6154C63.7114 24.792 64.4474 25.432 65.8554 25.432C67.4554 25.432 68.3194 24.664 68.3194 22.904V21.704C67.8554 22.632 66.7674 23.192 65.6954 23.192C63.4394 23.192 62.0474 21.496 62.0474 19.32C62.0474 17.128 63.5354 15.432 65.7274 15.432C66.8634 15.432 67.8554 15.992 68.3194 16.936ZM65.8874 21.944C67.4394 21.944 68.3834 20.76 68.3834 19.32C68.3834 17.864 67.4394 16.68 65.8874 16.68C64.4154 16.68 63.4234 17.8 63.4234 19.32C63.4234 20.824 64.4314 21.944 65.8874 21.944ZM72.6205 14.36C71.9485 14.36 71.4845 13.864 71.4845 13.24C71.4845 12.616 71.9485 12.104 72.6205 12.104C73.2765 12.104 73.7405 12.616 73.7405 13.24C73.7405 13.864 73.2765 14.36 72.6205 14.36ZM73.3085 23H71.9325V15.624H73.3085V23ZM76.9458 23H75.5538V15.624H76.9458V16.984C77.3458 16.04 78.2418 15.432 79.5218 15.432C81.3298 15.432 82.2578 16.488 82.2578 18.456V23H80.8818V19.064C80.8818 17.416 80.3378 16.632 79.0258 16.632C77.6498 16.632 76.9458 17.608 76.9458 19.096V23ZM90.953 18.904C90.953 19.176 90.953 19.384 90.921 19.72H85.209C85.241 21.144 86.121 21.976 87.529 21.976C88.505 21.976 89.177 21.592 89.481 20.888H90.873C90.617 22.248 89.257 23.192 87.529 23.192C85.257 23.192 83.833 21.688 83.833 19.304C83.833 16.968 85.273 15.432 87.465 15.432C89.545 15.432 90.953 16.872 90.953 18.904ZM85.209 18.648H89.593C89.593 17.352 88.793 16.552 87.449 16.552C86.105 16.552 85.273 17.4 85.209 18.648ZM99.2305 18.904C99.2305 19.176 99.2305 19.384 99.1985 19.72H93.4865C93.5185 21.144 94.3985 21.976 95.8065 21.976C96.7825 21.976 97.4545 21.592 97.7585 20.888H99.1505C98.8945 22.248 97.5345 23.192 95.8065 23.192C93.5345 23.192 92.1105 21.688 92.1105 19.304C92.1105 16.968 93.5505 15.432 95.7425 15.432C97.8225 15.432 99.2305 16.872 99.2305 18.904ZM93.4865 18.648H97.8705C97.8705 17.352 97.0705 16.552 95.7265 16.552C94.3825 16.552 93.5505 17.4 93.4865 18.648ZM102.278 23H100.886V15.624H102.278V17.304C102.566 16.056 103.51 15.512 104.438 15.512C104.694 15.512 104.934 15.528 105.11 15.576V16.856C104.87 16.808 104.678 16.808 104.422 16.808C102.966 16.808 102.278 18.136 102.278 19.784V23ZM108.737 23.192C106.929 23.192 105.681 22.152 105.681 20.792H107.057C107.057 21.512 107.729 22.072 108.817 22.072C109.633 22.072 110.177 21.672 110.177 21.016C110.177 20.52 109.953 20.184 109.073 19.96L107.569 19.576C106.481 19.272 105.905 18.568 105.905 17.544C105.905 16.296 107.057 15.432 108.657 15.432C110.417 15.432 111.489 16.28 111.489 17.656H110.129C110.129 16.952 109.569 16.504 108.609 16.504C107.841 16.504 107.281 16.872 107.281 17.48C107.281 17.944 107.553 18.28 108.353 18.504L109.873 18.92C110.961 19.224 111.585 19.944 111.585 20.968C111.585 22.376 110.481 23.192 108.737 23.192Z" fill="white"/>
<path d="M8.69371 39.2987L10.7949 34.3252C12.0068 31.4566 12.6126 30.0222 13.5111 30.0944C14.4095 30.1664 14.7816 31.6902 15.5258 34.7376C15.7475 35.645 15.8583 36.0987 16.1621 36.4194C16.4661 36.7399 16.9132 36.8748 17.8075 37.1446C20.8108 38.0506 22.3125 38.5036 22.3364 39.4046C22.3605 40.3056 20.8958 40.834 17.9665 41.8909L12.8878 43.7233C9.82096 44.8298 8.28754 45.383 7.53903 44.5934C6.79052 43.8038 7.42491 42.3021 8.69371 39.2987Z" fill="#B3B3B3" stroke="#B3B3B3" stroke-width="2" stroke-linejoin="round"/>
<path d="M4.2391 42.8499L2.23982 42.7964M5.13184 46.8752L3.59229 48.3346M9.10369 47.9817L9.05023 49.981M13.129 47.089L14.5884 48.6286M3.88628 37.3385L5.34565 38.8781" stroke="#B3B3B3" stroke-width="2" stroke-linecap="round" stroke-linejoin="round"/>
</svg>
