<svg width="78" height="59" viewBox="0 0 78 59" fill="none" xmlns="http://www.w3.org/2000/svg">
<rect y="22.2034" width="63" height="36" rx="18" fill="#04A33E"/>
<path d="M15.0783 45.4594C12.5343 45.4594 11.0303 44.0354 11.0303 41.6354H12.4863C12.4863 43.2034 13.4623 44.1794 15.0623 44.1794C16.4703 44.1794 17.2703 43.5074 17.2703 42.3394C17.2703 41.3474 16.7743 40.8034 15.4783 40.3554L13.6223 39.6994C12.1183 39.2194 11.3663 38.2434 11.3663 36.7554C11.3663 34.9634 12.8063 33.7474 14.8863 33.7474C17.0943 33.7474 18.5183 35.0914 18.5183 37.1714H17.0623C17.0623 35.7954 16.2623 34.9954 14.8383 34.9954C13.5903 34.9954 12.8223 35.6674 12.8223 36.6754C12.8223 37.6194 13.4303 38.2114 14.8063 38.6754L16.5343 39.2834C17.9743 39.7794 18.7263 40.7714 18.7263 42.2914C18.7263 44.2114 17.3023 45.4594 15.0783 45.4594ZM23.3483 44.0514C23.6203 44.0514 24.0683 44.0034 24.2763 43.9554V45.1874C24.0043 45.2514 23.5083 45.2994 23.0283 45.2994C22.1643 45.2994 20.7723 45.1394 20.7723 42.7554V38.9954H19.4443V37.8274H20.7723V35.4914H22.1643V37.8274H24.0203V38.9954H22.1643V42.4514C22.1643 43.8594 22.6443 44.0514 23.3483 44.0514ZM31.0834 41.6194V37.8274H32.4594V45.3474C32.4594 46.5154 32.1074 47.4114 31.4674 48.0034C30.8754 48.5154 30.0594 48.8034 29.0514 48.8034C27.9954 48.8034 27.1314 48.5314 26.5554 48.0354C26.0274 47.5874 25.7394 46.9474 25.7234 46.1314H27.1154C27.1794 47.0274 27.6594 47.6354 29.0354 47.6354C30.2834 47.6354 31.0834 46.9314 31.0834 45.2514V43.8754C30.6514 44.7714 29.7714 45.3794 28.5234 45.3794C26.6034 45.3794 25.7234 44.0994 25.7234 42.2274V37.8274H27.0994V41.9394C27.0994 43.2514 27.5314 44.1474 28.9874 44.1474C30.4114 44.1474 31.0834 42.9474 31.0834 41.6194ZM36.1136 45.2034H34.7216V34.0034H36.1136V45.2034ZM44.8864 41.1074C44.8864 41.3794 44.8864 41.5874 44.8544 41.9234H39.1424C39.1744 43.3474 40.0544 44.1794 41.4624 44.1794C42.4384 44.1794 43.1104 43.7954 43.4144 43.0914H44.8064C44.5504 44.4514 43.1904 45.3954 41.4624 45.3954C39.1904 45.3954 37.7664 43.8914 37.7664 41.5074C37.7664 39.1714 39.2064 37.6354 41.3984 37.6354C43.4784 37.6354 44.8864 39.0754 44.8864 41.1074ZM39.1424 40.8514H43.5264C43.5264 39.5554 42.7264 38.7554 41.3824 38.7554C40.0384 38.7554 39.2064 39.6034 39.1424 40.8514ZM49.0062 45.3954C47.1982 45.3954 45.9502 44.3554 45.9502 42.9954H47.3262C47.3262 43.7154 47.9982 44.2754 49.0862 44.2754C49.9022 44.2754 50.4462 43.8754 50.4462 43.2194C50.4462 42.7234 50.2222 42.3874 49.3422 42.1634L47.8382 41.7794C46.7502 41.4754 46.1742 40.7714 46.1742 39.7474C46.1742 38.4994 47.3262 37.6354 48.9262 37.6354C50.6862 37.6354 51.7582 38.4834 51.7582 39.8594H50.3982C50.3982 39.1554 49.8382 38.7074 48.8782 38.7074C48.1102 38.7074 47.5502 39.0754 47.5502 39.6834C47.5502 40.1474 47.8222 40.4834 48.6222 40.7074L50.1422 41.1234C51.2302 41.4274 51.8542 42.1474 51.8542 43.1714C51.8542 44.5794 50.7502 45.3954 49.0062 45.3954Z" fill="white"/>
<path d="M66.7024 14.1123L65.8064 19.4365C65.2896 22.5075 65.0313 24.0429 64.1404 24.1802C63.2497 24.3176 62.5358 22.9209 61.108 20.1277C60.6829 19.2959 60.4703 18.88 60.1006 18.6382C59.7309 18.3965 59.2647 18.3685 58.3322 18.3125C55.2009 18.1245 53.6352 18.0305 53.4039 17.1594C53.1724 16.2882 54.4755 15.4359 57.0816 13.7312L61.5999 10.7757C64.3285 8.99094 65.6927 8.09858 66.6033 8.69404C67.5139 9.28951 67.2434 10.8971 66.7024 14.1123Z" fill="#22C55E" stroke="#22C55E" stroke-width="2" stroke-linejoin="round"/>
<path d="M70.2166 9.62848L72.1742 9.21886M68.4185 5.91809L69.5795 4.14267M64.2985 5.75854L63.8889 3.80094M60.5881 7.5566L58.8127 6.39562M71.8324 14.9095L70.057 13.7485" stroke="#22C55E" stroke-width="2" stroke-linecap="round" stroke-linejoin="round"/>
</svg>
