<svg width="22" height="22" viewBox="0 0 22 22" fill="none" xmlns="http://www.w3.org/2000/svg">
<path d="M11.0037 7.58732L15.2948 8.94005C17.7699 9.72027 19.0074 10.1103 19.0181 10.8614C19.0288 11.6124 17.7939 12.0407 15.3241 12.8974C14.5887 13.1525 14.2209 13.28 13.9788 13.5573C13.7367 13.8346 13.6599 14.2162 13.5063 14.9793C12.9904 17.542 12.7325 18.8234 11.9869 18.914C11.2413 19.0047 10.6879 17.8311 9.58116 15.4838L7.66223 11.4142C6.50348 8.95675 5.92411 7.72801 6.52044 7.04503C7.11679 6.36206 8.41242 6.77048 11.0037 7.58732Z" stroke="#B3B3B3" stroke-width="1.66667" stroke-linejoin="round"/>
<path d="M7.708 4.17058L7.59539 2.50772M4.43859 5.22723L3.10699 4.06454M3.83239 8.60925L2.16953 8.72186M4.88904 11.8787L3.72635 13.2103M12.2527 3.44518L11.09 4.77678" stroke="#B3B3B3" stroke-width="1.66667" stroke-linecap="round" stroke-linejoin="round"/>
</svg>
