<svg width="110" height="124" viewBox="0 0 110 124" fill="none" xmlns="http://www.w3.org/2000/svg">
<path d="M95.9982 9.27111C84.4342 3.43368 70.2833 0 55 0C39.7167 0 25.5658 3.43368 14.0015 9.27111C8.33055 12.1338 5.49505 13.5651 2.74756 18.0654C-1.82125e-07 22.5658 0 26.9234 0 35.6385V57.27C0 92.5071 27.7589 112.098 43.835 120.49C48.3187 122.83 50.5603 124 55 124C59.4397 124 61.6813 122.83 66.1644 120.49C82.2409 112.098 110 92.5071 110 57.27V35.6385C110 26.9234 110 22.5659 107.252 18.0654C104.505 13.565 101.669 12.1338 95.9982 9.27111Z" fill="url(#paint0_linear_2627_3293)" fill-opacity="0.05"/>
<path d="M92.2711 14.3739C81.7583 9.10139 68.8939 6 55 6C41.1061 6 28.2417 9.10139 17.7287 14.3739C12.5732 16.9595 9.9955 18.2524 7.49778 22.3172C5 26.382 5 30.3179 5 38.1896V57.7278C5 89.5548 30.2353 107.25 44.85 114.829C48.9261 116.943 50.9639 118 55 118C59.0361 118 61.0739 116.943 65.1494 114.829C79.7644 107.25 105 89.5548 105 57.7278V38.1896C105 30.3179 105 26.3821 102.502 22.3172C100.004 18.2523 97.4267 16.9595 92.2711 14.3739Z" fill="url(#paint1_linear_2627_3293)" fill-opacity="0.05"/>
<path d="M88.544 19.4767C79.0825 14.7691 67.5045 12 55 12C42.4955 12 30.9175 14.7691 21.4558 19.4767C16.8159 21.7853 14.4959 22.9396 12.248 26.5689C10 30.1983 10 33.7124 10 40.7407V58.1855C10 86.6025 32.7118 102.402 45.865 109.169C49.5335 111.056 51.3675 112 55 112C58.6325 112 60.4665 111.056 64.1345 109.169C77.288 102.402 100 86.6025 100 58.1855V40.7407C100 33.7125 100 30.1983 97.752 26.5689C95.504 22.9396 93.184 21.7853 88.544 19.4767Z" fill="url(#paint2_linear_2627_3293)"/>
<path d="M62.5 69.5C66.6421 69.5 70 66.1421 70 62C70 57.8579 66.6421 54.5 62.5 54.5C58.3579 54.5 55 57.8579 55 62C55 66.1421 58.3579 69.5 62.5 69.5Z" stroke="#1E1E1E" stroke-width="3.75" stroke-linejoin="round"/>
<path d="M47.5 84.5C51.6423 84.5 55 81.1423 55 77V69.5H47.5C43.3579 69.5 40 72.8577 40 77C40 81.1423 43.3579 84.5 47.5 84.5Z" stroke="#1E1E1E" stroke-width="3.75" stroke-linejoin="round"/>
<path d="M55 54.5V69.5H47.5C43.3579 69.5 40 66.1423 40 62C40 57.8577 43.3579 54.5 47.5 54.5H55Z" stroke="#1E1E1E" stroke-width="3.75" stroke-linecap="round" stroke-linejoin="round"/>
<path d="M55 39.5V54.5H47.5C43.3579 54.5 40 51.1421 40 47C40 42.8579 43.3579 39.5 47.5 39.5H55Z" stroke="#1E1E1E" stroke-width="3.75" stroke-linecap="round" stroke-linejoin="round"/>
<path d="M55 39.5V54.5H62.5C66.6423 54.5 70 51.1421 70 47C70 42.8579 66.6423 39.5 62.5 39.5H55Z" stroke="#1E1E1E" stroke-width="3.75" stroke-linecap="round" stroke-linejoin="round"/>
<defs>
<linearGradient id="paint0_linear_2627_3293" x1="55" y1="0" x2="55" y2="124" gradientUnits="userSpaceOnUse">
<stop stop-color="white"/>
<stop offset="1" stop-color="#666666"/>
</linearGradient>
<linearGradient id="paint1_linear_2627_3293" x1="55" y1="6" x2="55" y2="118" gradientUnits="userSpaceOnUse">
<stop stop-color="white"/>
<stop offset="1" stop-color="#666666"/>
</linearGradient>
<linearGradient id="paint2_linear_2627_3293" x1="55" y1="12" x2="55" y2="112" gradientUnits="userSpaceOnUse">
<stop stop-color="white"/>
<stop offset="1" stop-color="#666666"/>
</linearGradient>
</defs>
</svg>
