<svg width="32" height="32" viewBox="0 0 32 32" fill="none" xmlns="http://www.w3.org/2000/svg">
<path d="M15.0761 5.81836L16.924 5.81836C20.4083 5.81836 22.1506 5.81836 23.233 6.90082C24.3155 7.98329 24.3155 9.72548 24.3155 13.2099V15.0578C24.3155 18.5421 24.3155 20.2844 23.233 21.3668C22.1506 22.4493 20.4083 22.4493 16.924 22.4493H15.0761C11.5917 22.4493 9.8495 22.4493 8.76703 21.3668C7.68457 20.2844 7.68457 18.5421 7.68457 15.0578L7.68457 13.2099C7.68457 9.72548 7.68457 7.98329 8.76703 6.90082C9.8495 5.81836 11.5917 5.81836 15.0761 5.81836Z" stroke="white" stroke-width="1.9218" stroke-linecap="round" stroke-linejoin="round"/>
<path d="M19.6957 26.1821H12.3042" stroke="white" stroke-width="1.9218" stroke-linecap="round" stroke-linejoin="round"/>
<path d="M19.6957 18.6797H12.3042" stroke="white" stroke-width="1.9218" stroke-linecap="round" stroke-linejoin="round"/>
</svg>
