<svg width="56" height="56" viewBox="0 0 56 56" fill="none" xmlns="http://www.w3.org/2000/svg">
<path fill-rule="evenodd" clip-rule="evenodd" d="M16.164 55.8622C17.3836 49.7039 20.1207 44.1042 24.6113 39.1277C23.6257 37.9365 22.5447 36.786 21.3645 35.6772C15.176 29.8592 8.02308 26.8341 0 26.1074C0.588835 36.3715 3.35376 46.0523 7.84094 54.6957C10.5622 55.2431 13.3399 55.6351 16.164 55.8622ZM34.5999 20.858C40.7885 26.6748 47.9651 29.7095 56 30.4306C55.5562 20.0515 52.8861 10.2497 48.4575 1.48803C45.4562 0.844599 42.3847 0.390792 39.2561 0.13972C38.0466 6.2718 35.3357 11.8456 30.875 16.8137C31.9869 18.2185 33.227 19.5674 34.5999 20.858ZM35.1173 34.6277C29.3065 40.81 26.2718 47.9785 25.547 56.0038C35.9617 55.4842 45.7859 52.7242 54.5488 48.1962C55.1245 45.4534 55.5425 42.6523 55.7923 39.8029C49.551 38.5594 43.8843 35.7555 38.8594 31.1448C37.5629 32.194 36.315 33.3536 35.1173 34.6277ZM29.7435 18.0226C26.1876 21.6677 22.2126 24.3225 17.852 26.0931C21.4665 29.5838 24.1198 33.4812 25.9125 37.7535C29.4073 34.2356 33.3096 31.6535 37.5819 29.9191C34.0367 26.3601 31.4542 22.3813 29.7435 18.0226ZM0.0732887 16.7117C6.1221 17.8979 11.6279 20.5436 16.5455 24.8864C17.8445 23.8353 19.0961 22.672 20.2982 21.3923C26.123 15.1966 29.1481 8.03431 29.8704 0C19.6404 0.513694 9.98144 3.19034 1.33832 7.57957C0.726076 10.5597 0.300036 13.6081 0.0732887 16.7117Z" fill="#4F46E5"/>
</svg>
