<svg width="124" height="52" viewBox="0 0 124 52" fill="none" xmlns="http://www.w3.org/2000/svg">
<rect x="14.2556" width="109" height="36" rx="18" fill="#04A33E"/>
<path d="M27.391 23H25.935V11.8H27.391V16.776H32.607V11.8H34.063V23H32.607V18.088H27.391V23ZM37.0705 14.36C36.3985 14.36 35.9345 13.864 35.9345 13.24C35.9345 12.616 36.3985 12.104 37.0705 12.104C37.7265 12.104 38.1905 12.616 38.1905 13.24C38.1905 13.864 37.7265 14.36 37.0705 14.36ZM37.7585 23H36.3825V15.624H37.7585V23ZM40.4997 24.904C40.3237 24.904 40.0997 24.904 39.9557 24.872V24.2C40.1477 24.232 40.2597 24.232 40.5477 24.232C40.9797 24.232 41.2997 24.024 41.4437 23.688C41.6037 23.416 41.6517 23.112 41.6517 22.84C41.4917 23.016 41.2357 23.08 40.9957 23.08C40.4037 23.08 39.9237 22.664 39.9237 21.992C39.9237 21.32 40.4037 20.84 41.0757 20.84C41.7477 20.84 42.5317 21.416 42.5317 22.68C42.5317 23.976 41.8117 24.904 40.4997 24.904ZM50.001 23H48.545V11.8H50.001V23ZM53.7286 11.752C53.6326 12.1253 53.51 12.5307 53.3606 12.968C53.2113 13.4053 53.046 13.8427 52.8646 14.28C52.694 14.7067 52.5233 15.112 52.3526 15.496H51.3126C51.3873 15.1973 51.462 14.8773 51.5366 14.536C51.622 14.1947 51.6966 13.8533 51.7606 13.512C51.8353 13.16 51.8993 12.8187 51.9526 12.488C52.0166 12.1573 52.07 11.8533 52.1126 11.576H53.6166L53.7286 11.752ZM56.3495 23H54.9575V15.624H56.3495V16.968C56.6215 16.168 57.3735 15.432 58.5575 15.432C59.8535 15.432 60.6375 16.04 60.9095 17.016C61.2295 16.136 62.1415 15.432 63.2935 15.432C65.2775 15.432 65.9495 16.712 65.9495 18.328V23H64.5575V18.6C64.5575 17.208 63.9495 16.632 62.9575 16.632C61.8695 16.632 61.1495 17.368 61.1495 19.16V23H59.7575V18.712C59.7575 17.112 59.0695 16.632 58.1735 16.632C57.0375 16.632 56.3495 17.432 56.3495 19.16V23ZM75.4049 23.256C72.8609 23.256 71.3569 21.832 71.3569 19.432H72.8129C72.8129 21 73.7889 21.976 75.3889 21.976C76.7969 21.976 77.5969 21.304 77.5969 20.136C77.5969 19.144 77.1009 18.6 75.8049 18.152L73.9489 17.496C72.4449 17.016 71.6929 16.04 71.6929 14.552C71.6929 12.76 73.1329 11.544 75.2129 11.544C77.4209 11.544 78.8449 12.888 78.8449 14.968H77.3889C77.3889 13.592 76.5889 12.792 75.1649 12.792C73.9169 12.792 73.1489 13.464 73.1489 14.472C73.1489 15.416 73.7569 16.008 75.1329 16.472L76.8609 17.08C78.3009 17.576 79.0529 18.568 79.0529 20.088C79.0529 22.008 77.6289 23.256 75.4049 23.256ZM83.6749 21.848C83.9469 21.848 84.3949 21.8 84.6029 21.752V22.984C84.3309 23.048 83.8349 23.096 83.3549 23.096C82.4909 23.096 81.0989 22.936 81.0989 20.552V16.792H79.7709V15.624H81.0989V13.288H82.4909V15.624H84.3469V16.792H82.4909V20.248C82.4909 21.656 82.9709 21.848 83.6749 21.848ZM91.41 19.416V15.624H92.786V23.144C92.786 24.312 92.434 25.208 91.794 25.8C91.202 26.312 90.386 26.6 89.378 26.6C88.322 26.6 87.458 26.328 86.882 25.832C86.354 25.384 86.066 24.744 86.05 23.928H87.442C87.506 24.824 87.986 25.432 89.362 25.432C90.61 25.432 91.41 24.728 91.41 23.048V21.672C90.978 22.568 90.098 23.176 88.85 23.176C86.93 23.176 86.05 21.896 86.05 20.024V15.624H87.426V19.736C87.426 21.048 87.858 21.944 89.314 21.944C90.738 21.944 91.41 20.744 91.41 19.416ZM96.4401 23H95.0481V11.8H96.4401V23ZM105.213 18.904C105.213 19.176 105.213 19.384 105.181 19.72H99.469C99.501 21.144 100.381 21.976 101.789 21.976C102.765 21.976 103.437 21.592 103.741 20.888H105.133C104.877 22.248 103.517 23.192 101.789 23.192C99.517 23.192 98.093 21.688 98.093 19.304C98.093 16.968 99.533 15.432 101.725 15.432C103.805 15.432 105.213 16.872 105.213 18.904ZM99.469 18.648H103.853C103.853 17.352 103.053 16.552 101.709 16.552C100.365 16.552 99.533 17.4 99.469 18.648ZM109.333 23.192C107.525 23.192 106.277 22.152 106.277 20.792H107.653C107.653 21.512 108.325 22.072 109.413 22.072C110.229 22.072 110.773 21.672 110.773 21.016C110.773 20.52 110.549 20.184 109.669 19.96L108.165 19.576C107.077 19.272 106.501 18.568 106.501 17.544C106.501 16.296 107.653 15.432 109.253 15.432C111.013 15.432 112.085 16.28 112.085 17.656H110.725C110.725 16.952 110.165 16.504 109.205 16.504C108.437 16.504 107.877 16.872 107.877 17.48C107.877 17.944 108.149 18.28 108.949 18.504L110.469 18.92C111.557 19.224 112.181 19.944 112.181 20.968C112.181 22.376 111.077 23.192 109.333 23.192Z" fill="white"/>
<path d="M8.60136 38.41L10.4596 33.3407C11.5314 30.4168 12.0672 28.9549 12.9682 28.9835C13.869 29.0121 14.3143 30.5161 15.205 33.5239C15.4702 34.4196 15.6029 34.8674 15.9218 35.173C16.2409 35.4785 16.6941 35.5916 17.6004 35.8178C20.6439 36.5776 22.1658 36.9574 22.2333 37.8562C22.3008 38.755 20.8634 39.3536 17.9887 40.5508L13.0045 42.6266C9.9947 43.8801 8.48982 44.5068 7.70401 43.7543C6.9182 43.0018 7.47925 41.4712 8.60136 38.41Z" fill="#22C55E" stroke="#22C55E" stroke-width="2" stroke-linejoin="round"/>
<path d="M4.32369 42.1724L2.32415 42.2156M5.40998 46.1498L3.94279 47.6819M9.43068 47.063L9.47395 49.0626M13.4081 45.9767L14.9402 47.4439M3.70482 36.6845L5.23692 38.1517" stroke="#22C55E" stroke-width="2" stroke-linecap="round" stroke-linejoin="round"/>
</svg>
